<?xml version="1.0" encoding="UTF-8"?>
<!-- Generator: visioncortex VTracer 0.6.12 -->
<svg version="1.1" xmlns="http://www.w3.org/2000/svg" width="960" height="1108">
<path d="M0 0 C316.8 0 633.6 0 960 0 C960 365.64 960 731.28 960 1108 C643.2 1108 326.4 1108 0 1108 C0 742.36 0 376.72 0 0 Z " fill="none" transform="translate(0,0)"/>
<path d="M0 0 C1.21 0.17 2.42 0.34 3.67 0.52 C12.16 1.86 20.15 4.17 28.31 6.88 C29.3 7.2 30.29 7.53 31.31 7.87 C41.09 11.21 50.31 15.4 59.25 20.56 C59.58 20.75 59.58 20.75 61.23 21.69 C63.16 22.79 65.08 23.9 67 25 C68.33 25.76 69.66 26.52 70.98 27.28 C71.98 27.85 72.97 28.41 74 29 C74 29.66 74 30.32 74 31 C74.55 31.26 75.11 31.52 75.68 31.78 C83.77 36.03 90.45 42.13 96.71 48.7 C99 51 99 51 101.49 52.95 C104.33 55.27 106.5 57.78 108.81 60.62 C109.6 61.59 110.39 62.55 111.21 63.54 C113 66 113 66 113 68 C113.99 68.33 114.98 68.66 116 69 C117.77 71.39 119.4 73.75 121 76.25 C121.22 76.58 121.22 76.58 122.33 78.28 C123.57 80.18 124.79 82.09 126 84 C126.6 84.92 127.2 85.85 127.81 86.8 C129 89 129 89 129 92 C129.66 92 130.32 92 131 92 C132.32 94.87 133.63 97.75 134.94 100.62 C135.31 101.43 135.68 102.24 136.07 103.07 C138.02 107.39 139.51 111.23 140 116 C140.66 116 141.32 116 142 116 C144.63 123.82 147.07 131.58 148.62 139.69 C148.75 140.33 148.87 140.97 149 141.63 C149.71 145.54 150.12 149.39 150.36 153.36 C151.35 166.94 151.35 166.94 154.34 170.68 C157.62 173.48 161.36 175.3 165.24 177.12 C178.57 183.83 191.43 197.92 200 210 C200.58 210.8 201.16 211.59 201.75 212.41 C219 236.48 219 236.48 219 247 C219.6 247.11 219.6 247.11 222.62 247.69 C232.44 249.89 241.77 253.18 250 259 C251.5 259.98 253 260.96 254.5 261.94 C256 262.95 257.5 263.97 259 265 C259.65 265.44 260.29 265.88 260.96 266.33 C282.61 281.7 297.51 307.42 302.17 333.36 C305.53 355.48 302.8 378.78 293 399 C292.63 399.85 292.25 400.7 291.87 401.57 C285.28 415.61 274.93 428.21 263 438 C262.29 438.59 261.58 439.18 260.84 439.78 C255.51 444.06 249.97 447.68 244 451 C243.55 451.25 243.55 451.25 241.26 452.53 C225.79 460.74 207.59 465.84 190 464 C184.89 461.94 182.68 459.84 180 455 C180 454.34 180 453.68 180 453 C170.76 453 161.52 453 152 453 C152 456.96 152 460.92 152 465 C143.42 465 134.84 465 126 465 C126 461.04 126 457.08 126 453 C117.09 453 108.18 453 99 453 C99 457.29 99 461.58 99 466 C90.42 466 81.84 466 73 466 C73 462.04 73 458.08 73 454 C64.09 454 55.18 454 46 454 C46 458.29 46 462.58 46 467 C37.42 467 28.84 467 20 467 C20 462.71 20 458.42 20 454 C11.09 454 2.18 454 -7 454 C-7 458.29 -7 462.58 -7 467 C-15.25 467 -23.5 467 -32 467 C-32 463.04 -32 459.08 -32 455 C-40.91 455 -49.82 455 -59 455 C-59.33 456.65 -59.66 458.3 -60 460 C-62.15 463.08 -63.86 464.9 -67 467 C-94.96 470.5 -124.34 462.38 -147 446 C-147.97 445.33 -148.94 444.66 -149.95 443.97 C-159.72 437.11 -167.96 429.65 -175 420 C-175.73 419.06 -176.46 418.12 -177.22 417.15 C-182.2 410.72 -186.33 404.26 -190 397 C-190.51 396.04 -191.03 395.09 -191.56 394.1 C-205.86 366.92 -208.21 332.02 -199.34 302.82 C-197.5 297.12 -195.28 291.63 -192.94 286.12 C-192.59 285.28 -192.23 284.44 -191.87 283.58 C-190.42 280.15 -189.08 277.11 -187 274 C-186.4 269.59 -187.74 267.33 -190.12 263.69 C-197.73 251.11 -201.62 236.72 -205.32 222.58 C-205.75 220.96 -206.19 219.35 -206.65 217.74 C-216.29 183.97 -212.04 138.96 -195.95 107.95 C-195 105.99 -194.24 104.03 -193.5 101.98 C-192.01 97.87 -190.09 94.12 -187.94 90.31 C-187.55 89.62 -187.16 88.93 -186.76 88.22 C-182.76 81.32 -178.04 75.16 -173 69 C-172.19 68 -171.38 66.99 -170.54 65.96 C-169.03 64.1 -167.51 62.24 -165.98 60.39 C-164.77 58.93 -163.58 57.47 -162.4 55.98 C-161.31 54.62 -160.16 53.3 -159 52 C-158.34 52 -157.68 52 -157 52 C-157 51.34 -157 50.68 -157 50 C-155.64 48.59 -155.64 48.59 -153.69 46.94 C-152.97 46.33 -152.25 45.72 -151.5 45.09 C-150.68 44.4 -149.85 43.71 -149 43 C-148.52 42.59 -148.52 42.59 -146.09 40.54 C-138.26 34 -138.26 34 -136 34 C-136 33.34 -136 32.68 -136 32 C-133.49 30.29 -130.98 28.69 -128.38 27.12 C-126.94 26.25 -125.52 25.38 -124.09 24.51 C-123.74 24.3 -123.74 24.3 -121.98 23.23 C-120.21 22.13 -118.49 20.97 -116.77 19.8 C-114.27 18.17 -112.04 17.08 -109.25 16.06 C-105.83 14.81 -102.68 13.32 -99.47 11.63 C-69.94 -3.26 -32.13 -5.61 0 0 Z " fill="#BFAA80" transform="translate(480,260)"/>
<path d="M0 0 C1.21 0.17 2.42 0.34 3.67 0.52 C12.16 1.86 20.15 4.17 28.31 6.88 C29.3 7.2 30.29 7.53 31.31 7.87 C41.09 11.21 50.31 15.4 59.25 20.56 C59.58 20.75 59.58 20.75 61.23 21.69 C63.16 22.79 65.08 23.9 67 25 C68.33 25.76 69.66 26.52 70.98 27.28 C71.98 27.85 72.97 28.41 74 29 C74 29.66 74 30.32 74 31 C74.55 31.26 75.11 31.52 75.68 31.78 C83.77 36.03 90.45 42.13 96.71 48.7 C99 51 99 51 101.49 52.95 C104.33 55.27 106.5 57.78 108.81 60.62 C109.6 61.59 110.39 62.55 111.21 63.54 C113 66 113 66 113 68 C113.99 68.33 114.98 68.66 116 69 C117.77 71.39 119.4 73.75 121 76.25 C121.22 76.58 121.22 76.58 122.33 78.28 C123.57 80.18 124.79 82.09 126 84 C126.6 84.92 127.2 85.85 127.81 86.8 C129 89 129 89 129 92 C129.66 92 130.32 92 131 92 C132.32 94.87 133.63 97.75 134.94 100.62 C135.31 101.43 135.68 102.24 136.07 103.07 C138.02 107.39 139.51 111.23 140 116 C140.66 116 141.32 116 142 116 C144.63 123.82 147.07 131.58 148.62 139.69 C148.75 140.33 148.87 140.97 149 141.63 C149.71 145.54 150.12 149.39 150.36 153.36 C151.35 166.94 151.35 166.94 154.34 170.68 C157.62 173.48 161.36 175.3 165.24 177.12 C178.57 183.83 191.43 197.92 200 210 C200.58 210.8 201.16 211.59 201.75 212.41 C219 236.48 219 236.48 219 247 C219.6 247.11 219.6 247.11 222.62 247.69 C232.44 249.89 241.77 253.18 250 259 C251.5 259.98 253 260.96 254.5 261.94 C256 262.95 257.5 263.97 259 265 C259.65 265.44 260.29 265.88 260.96 266.33 C282.61 281.7 297.51 307.42 302.17 333.36 C305.53 355.48 302.8 378.78 293 399 C292.63 399.85 292.25 400.7 291.87 401.57 C285.28 415.61 274.93 428.21 263 438 C262.29 438.59 261.58 439.18 260.84 439.78 C255.51 444.06 249.97 447.68 244 451 C243.55 451.25 243.55 451.25 241.26 452.53 C225.79 460.74 207.59 465.84 190 464 C186.7 462.62 184.53 461.58 182.12 458.94 C180.49 454.67 180.58 450.53 181 446 C181.33 445.34 181.66 444.68 182 444 C182.66 444 183.32 444 184 444 C184.25 443.38 184.5 442.76 184.75 442.12 C186.26 439.55 187.27 439.11 190 438 C192.27 437.62 192.27 437.62 194.74 437.44 C195.19 437.4 195.19 437.4 197.47 437.21 C198.41 437.14 199.35 437.07 200.31 437 C206.5 436.53 212.06 435.81 218 434 C219.32 434 220.64 434 222 434 C222 433.34 222 432.68 222 432 C224.31 431.67 226.62 431.34 229 431 C229 430.34 229 429.68 229 429 C229.85 428.6 230.69 428.21 231.57 427.8 C248.23 419.08 264.06 404.04 270.16 385.83 C270.44 384.9 270.72 383.96 271 383 C271.1 382.69 271.1 382.69 271.63 381.12 C278.99 359.09 278.35 336.24 268 315.38 C266.11 311.66 264.11 308.1 261.75 304.66 C260 302 260 302 260 300 C259.34 300 258.68 300 258 300 C256.62 298.53 256.62 298.53 255 296.5 C244.03 283.74 229.83 276.31 213.61 272.72 C207.12 271.26 201.79 269.48 197.75 263.88 C196.38 261.17 195.54 258.49 194.75 255.56 C189.04 235.6 173.35 212.31 155 202 C153.69 201.04 152.4 200.06 151.12 199.06 C147.57 196.38 143.95 194.06 140 192 C138.99 191.46 137.98 190.93 136.94 190.38 C108.2 175.51 76.33 171.63 45 180 C44.05 180.23 43.11 180.45 42.13 180.69 C30.82 183.66 20.2 189.63 10.29 195.71 C8 197 8 197 6 197 C6 197.66 6 198.32 6 199 C4.44 200.2 2.82 201.34 1.19 202.44 C-10.9 211.03 -20.06 222.31 -28.58 234.31 C-30.32 236.38 -31.6 237.68 -34 239 C-39.61 239.46 -43.78 238.64 -49.19 237 C-75.01 230.24 -103.13 234.85 -126 248 C-126.91 248.47 -127.81 248.94 -128.75 249.43 C-150.7 261.33 -165.98 284.59 -173.21 307.84 C-176.25 318.14 -177.21 327.35 -177.25 338.06 C-177.27 339.31 -177.29 340.56 -177.31 341.84 C-177.36 352.68 -175.44 362.59 -171.79 372.78 C-171.24 374.34 -170.72 375.92 -170.24 377.5 C-166.38 389.51 -158.92 399.41 -150.63 408.74 C-148.78 410.83 -147.14 412.71 -145.93 415.24 C-144.69 417.59 -143.42 417.95 -141 419 C-139.28 420.07 -137.57 421.15 -135.88 422.25 C-134.9 422.87 -133.92 423.5 -132.91 424.14 C-131.14 425.27 -129.37 426.42 -127.62 427.58 C-112.57 437.24 -95.64 440.88 -78 441.31 C-71.6 441.49 -67.1 441.92 -62.18 446.43 C-59.24 450.35 -59.39 455.33 -60 460 C-62.06 463.34 -63.74 464.83 -67 467 C-94.96 470.5 -124.34 462.38 -147 446 C-147.97 445.33 -148.94 444.66 -149.95 443.97 C-159.72 437.11 -167.96 429.65 -175 420 C-175.73 419.06 -176.46 418.12 -177.22 417.15 C-182.2 410.72 -186.33 404.26 -190 397 C-190.51 396.04 -191.03 395.09 -191.56 394.1 C-205.86 366.92 -208.21 332.02 -199.34 302.82 C-197.5 297.12 -195.28 291.63 -192.94 286.12 C-192.59 285.28 -192.23 284.44 -191.87 283.58 C-190.42 280.15 -189.08 277.11 -187 274 C-186.4 269.59 -187.74 267.33 -190.12 263.69 C-197.73 251.11 -201.62 236.72 -205.32 222.58 C-205.75 220.96 -206.19 219.35 -206.65 217.74 C-216.29 183.97 -212.04 138.96 -195.95 107.95 C-195 105.99 -194.24 104.03 -193.5 101.98 C-192.01 97.87 -190.09 94.12 -187.94 90.31 C-187.55 89.62 -187.16 88.93 -186.76 88.22 C-182.76 81.32 -178.04 75.16 -173 69 C-172.19 68 -171.38 66.99 -170.54 65.96 C-169.03 64.1 -167.51 62.24 -165.98 60.39 C-164.77 58.93 -163.58 57.47 -162.4 55.98 C-161.31 54.62 -160.16 53.3 -159 52 C-158.34 52 -157.68 52 -157 52 C-157 51.34 -157 50.68 -157 50 C-155.64 48.59 -155.64 48.59 -153.69 46.94 C-152.97 46.33 -152.25 45.72 -151.5 45.09 C-150.68 44.4 -149.85 43.71 -149 43 C-148.52 42.59 -148.52 42.59 -146.09 40.54 C-138.26 34 -138.26 34 -136 34 C-136 33.34 -136 32.68 -136 32 C-133.49 30.29 -130.98 28.69 -128.38 27.12 C-126.94 26.25 -125.52 25.38 -124.09 24.51 C-123.74 24.3 -123.74 24.3 -121.98 23.23 C-120.21 22.13 -118.49 20.97 -116.77 19.8 C-114.27 18.17 -112.04 17.08 -109.25 16.06 C-105.83 14.81 -102.68 13.32 -99.47 11.63 C-69.94 -3.26 -32.13 -5.61 0 0 Z " fill="#3C2E24" transform="translate(480,260)"/>
<path d="M0 0 C1.33 0.68 2.66 1.35 4 2 C4 2.66 4 3.32 4 4 C4.68 4.25 5.36 4.5 6.06 4.75 C9.57 6.24 12.72 8.07 16 10 C16 10.66 16 11.32 16 12 C16.55 12.23 17.1 12.46 17.66 12.7 C20.67 14.38 22.92 16.52 25.44 18.88 C28.1 21.35 30.71 23.77 33.58 26 C37.15 28.95 39.8 32.48 42.68 36.09 C44.1 37.88 45.55 39.64 47.04 41.38 C59.88 56.53 69.24 76.4 74.19 95.5 C74.32 96 74.32 96 75.01 98.55 C76.4 103.85 77.35 108.52 77 114 C74.54 113.52 72.08 113.04 69.62 112.56 C69.28 112.5 69.28 112.5 67.51 112.15 C62.23 111.11 62.23 111.11 60 110 C27.45 104.59 -6.51 107.54 -36 123 C-37.15 123.58 -38.3 124.16 -39.48 124.76 C-54.09 132.29 -77.33 145.66 -85 161 C-85.66 161 -86.32 161 -87 161 C-87.27 161.58 -87.54 162.15 -87.81 162.75 C-89.02 165.03 -90.43 166.95 -92 169 C-93.22 168.78 -94.45 168.57 -95.71 168.34 C-121.79 163.94 -147.75 165.27 -172.25 175.86 C-175.47 177.19 -178.63 178.16 -182 179 C-182 179.66 -182 180.32 -182 181 C-182.74 181.33 -183.48 181.66 -184.24 182 C-195.47 187.26 -203.97 194.86 -212.91 203.35 C-215 205 -215 205 -218 205 C-227.25 183.78 -233.19 162.72 -233.19 139.49 C-233.19 137.4 -233.21 135.31 -233.22 133.21 C-233.28 121.34 -232.15 109.74 -228.81 98.31 C-228.71 97.94 -228.71 97.94 -228.16 96.06 C-223.73 81.03 -218.14 67.4 -210 54 C-209.46 53.03 -208.92 52.06 -208.36 51.05 C-207.91 50.38 -207.46 49.7 -207 49 C-206.34 49 -205.68 49 -205 49 C-204.76 48.28 -204.51 47.57 -204.26 46.83 C-202.83 43.63 -201.07 41.37 -198.81 38.69 C-198.01 37.73 -197.2 36.77 -196.37 35.78 C-195.59 34.86 -194.8 33.94 -194 33 C-193.38 32.26 -192.77 31.52 -192.13 30.75 C-188.12 26.01 -183.8 21.94 -179 18 C-178.03 17.18 -177.05 16.35 -176.05 15.5 C-163.49 5.1 -149.35 -3.4 -134 -9 C-133.4 -9.24 -133.4 -9.24 -130.34 -10.43 C-125.41 -12.28 -120.38 -13.68 -115.31 -15.06 C-114.41 -15.32 -113.5 -15.57 -112.57 -15.84 C-75.17 -26.09 -33.57 -18.77 0 0 Z " fill="#D8A82B" transform="translate(528,303)"/>
<path d="M0 0 C0.66 0.33 1.32 0.66 2 1 C2 1.66 2 2.32 2 3 C2.6 3.06 3.2 3.12 3.81 3.19 C7 4.37 7.55 5.96 9 9 C9.39 12.41 9.39 12.41 9.42 16.36 C9.43 17.08 9.44 17.8 9.45 18.55 C9.47 20.93 9.47 23.3 9.47 25.68 C9.48 27.34 9.48 29 9.49 30.66 C9.51 34.14 9.51 37.62 9.5 41.09 C9.5 45.54 9.53 49.98 9.57 54.43 C9.59 57.86 9.59 61.28 9.59 64.71 C9.59 66.35 9.6 67.99 9.62 69.63 C9.64 71.92 9.63 74.22 9.62 76.51 C9.62 77.82 9.62 79.12 9.62 80.46 C8.8 85.12 7.35 86.72 4 90 C-0.34 91.45 -4.47 91.66 -9 91 C-12.16 88.57 -13.8 86.3 -16 83 C-16.32 80.5 -16.32 80.5 -16.41 77.44 C-16.45 76.27 -16.49 75.1 -16.53 73.89 C-16.56 72.61 -16.59 71.32 -16.62 70 C-16.64 69.34 -16.66 68.68 -16.68 68 C-16.82 62.67 -16.92 57.34 -17 52 C-17.01 51.09 -17.03 50.19 -17.04 49.26 C-17.13 43.43 -17.19 37.6 -17.23 31.77 C-17.24 29.85 -17.26 27.92 -17.28 25.99 C-17.31 23.26 -17.32 20.53 -17.33 17.8 C-17.34 16.99 -17.35 16.17 -17.37 15.33 C-17.35 10.76 -17.03 7.68 -14 4 C-13.34 4 -12.68 4 -12 4 C-12 3.34 -12 2.68 -12 2 C-8.08 -0.61 -4.55 -0.22 0 0 Z " fill="#3D3129" transform="translate(452,124)"/>
<path d="M0 0 C2.31 1.02 2.31 1.02 4 2 C4 2.66 4 3.32 4 4 C4.66 4 5.32 4 6 4 C8.53 7.79 8.77 10.14 8.71 14.64 C7.31 21.27 2.96 26.57 -0.78 32.11 C-2.41 34.63 -3.72 37.24 -5 39.94 C-7.81 45.83 -11.1 51.38 -14.49 56.95 C-17.04 61.2 -19.15 65.4 -21 70 C-21.66 70 -22.32 70 -23 70 C-23.27 70.93 -23.54 71.86 -23.81 72.81 C-25.21 76.56 -26.4 78.07 -29.8 80.05 C-33.76 81.76 -37.78 81.67 -42 81 C-45.12 79.32 -47.39 77.22 -49 74 C-50.31 62.41 -43.41 53.53 -37.71 43.91 C-36.14 41.24 -34.65 38.54 -33.19 35.81 C-30.14 30.17 -26.89 24.66 -23.61 19.15 C-21.37 15.37 -19.22 11.58 -17.19 7.69 C-13.02 0.27 -8.25 -1.15 0 0 Z " fill="#3C3028" transform="translate(604,164)"/>
<path d="M0 0 C0.94 -0 1.88 -0.01 2.85 -0.01 C5.53 -0.01 8.21 -0.01 10.89 -0.01 C11.69 -0.01 12.5 -0.01 13.34 -0.01 C16.59 -0 19.2 0.09 22.31 1.12 C22.31 1.79 22.31 2.44 22.31 3.12 C22.93 3.39 23.55 3.66 24.19 3.94 C26.31 5.12 26.31 5.12 28.31 8.12 C28.94 12.49 28.75 16.16 26.94 20.19 C26.4 20.83 25.87 21.47 25.31 22.12 C24.65 22.12 23.99 22.12 23.31 22.12 C23.31 22.79 23.31 23.44 23.31 24.12 C19.69 26.39 16.65 26.38 12.44 26.38 C11.75 26.39 11.07 26.39 10.36 26.39 C8.11 26.4 5.86 26.4 3.6 26.39 C2.03 26.39 0.46 26.39 -1.11 26.4 C-4.41 26.4 -7.7 26.4 -10.99 26.39 C-15.21 26.37 -19.42 26.38 -23.63 26.39 C-26.88 26.4 -30.12 26.4 -33.37 26.39 C-34.92 26.39 -36.47 26.39 -38.03 26.4 C-40.2 26.4 -42.38 26.39 -44.55 26.38 C-45.79 26.38 -47.02 26.38 -48.3 26.38 C-52.94 26.03 -56.43 25.15 -60.06 22.19 C-62.51 17.57 -62.45 13.25 -61.69 8.12 C-59.37 3.92 -57.14 2.61 -52.69 1.12 C-50.03 0.81 -50.03 0.81 -47.11 0.71 C-45.99 0.67 -44.87 0.63 -43.71 0.59 C-42.49 0.56 -41.26 0.53 -40 0.5 C-38.72 0.46 -37.44 0.43 -36.12 0.39 C-24.08 0.06 -12.04 0.02 0 0 Z " fill="#3E322A" transform="translate(198.6875,428.875)"/>
<path d="M0 0 C1.96 1 3.82 2.1 5.69 3.28 C6.37 3.69 7.06 4.09 7.77 4.52 C9.18 5.35 10.58 6.2 11.98 7.05 C14.95 8.86 17.97 10.56 21 12.28 C22.13 12.92 23.26 13.57 24.42 14.24 C27.66 16.09 30.91 17.91 34.17 19.74 C40.84 23.48 47.46 27.29 54 31.28 C54.86 31.79 55.73 32.31 56.62 32.84 C59.41 34.53 61.13 35.57 63 38.28 C63.69 42.82 63.55 46.86 61.87 51.15 C58.8 54.64 55.92 57.08 51.2 57.57 C47.41 57.22 44.97 56.06 41.62 54.28 C40.56 53.72 39.5 53.16 38.41 52.59 C37.62 52.16 36.82 51.72 36 51.28 C36 50.62 36 49.96 36 49.28 C35.33 49.2 34.66 49.12 33.97 49.04 C30.04 48.03 26.92 46.19 23.44 44.15 C22.73 43.75 22.02 43.34 21.3 42.93 C16.11 39.95 10.96 36.93 5.81 33.89 C2.99 32.27 0.13 30.74 -2.75 29.21 C-8.92 25.87 -15.16 22.32 -19 16.28 C-19.73 9.89 -18.75 6.48 -15 1.28 C-10.42 -1.59 -5.06 -1.83 0 0 Z " fill="#3C3028" transform="translate(194.00146484375,279.72265625)"/>
<path d="M0 0 C3.28 -0.06 6.57 -0.1 9.85 -0.14 C11.42 -0.16 12.99 -0.18 14.56 -0.22 C16.76 -0.26 18.95 -0.27 21.15 -0.28 C21.77 -0.29 21.77 -0.29 24.93 -0.33 C29.71 0.33 32.49 2.69 36.19 5.59 C38.64 8.89 37.89 13.27 37.34 17.14 C35.32 21.13 33.19 23.87 29.34 26.14 C26.05 26.54 26.05 26.54 22.09 26.56 C21.72 26.57 21.72 26.57 19.89 26.59 C17.5 26.61 15.11 26.61 12.72 26.61 C11.06 26.62 9.4 26.63 7.73 26.64 C4.25 26.65 0.76 26.65 -2.73 26.65 C-7.19 26.64 -11.65 26.67 -16.12 26.71 C-19.55 26.74 -22.99 26.74 -26.42 26.74 C-28.07 26.74 -29.71 26.75 -31.36 26.76 C-33.66 26.79 -35.96 26.78 -38.27 26.76 C-39.58 26.76 -40.88 26.76 -42.23 26.77 C-47.13 25.88 -49.14 23.23 -51.97 19.33 C-53.04 15.92 -52.77 12.71 -52.66 9.14 C-52 9.14 -51.34 9.14 -50.66 9.14 C-50.61 8.57 -50.57 7.99 -50.53 7.39 C-49.17 3.9 -46.87 2.94 -43.66 1.14 C-40.24 0.6 -40.24 0.6 -36.46 0.54 C-35.77 0.52 -35.07 0.5 -34.36 0.48 C-32.08 0.43 -29.81 0.41 -27.53 0.39 C-25.94 0.37 -24.35 0.34 -22.76 0.32 C-19.43 0.26 -16.1 0.22 -12.77 0.2 C-8.51 0.16 -4.26 0.08 0 0 Z " fill="#3C2F27" transform="translate(727.6551818847656,422.8553771972656)"/>
<path d="M0 0 C0.83 -0.03 1.66 -0.06 2.52 -0.09 C6.72 0.64 9.77 2.53 12.39 5.94 C13.59 7.84 14.68 9.78 15.75 11.75 C16.61 13.27 17.47 14.79 18.33 16.31 C18.79 17.12 19.24 17.94 19.71 18.77 C22.39 23.49 25.17 28.15 27.94 32.81 C29.5 35.47 31.07 38.12 32.63 40.77 C33.71 42.58 34.8 44.37 35.91 46.15 C36.46 47.04 37.01 47.93 37.58 48.85 C38.08 49.65 38.58 50.44 39.09 51.27 C40.19 53.38 40.19 53.38 40.19 56.38 C40.85 56.38 41.51 56.38 42.19 56.38 C45.48 61.9 47.11 65.92 46.19 72.38 C44.43 76.04 42.31 78.62 38.94 80.88 C34.93 81.6 31.07 81.7 27.19 80.38 C21.93 76.21 19.1 70.46 15.88 64.69 C15.33 63.73 14.78 62.76 14.21 61.77 C10.19 54.65 10.19 54.65 10.19 52.38 C9.53 52.38 8.87 52.38 8.19 52.38 C7.96 51.94 7.96 51.94 6.82 49.76 C1.54 39.72 -4.08 29.89 -9.82 20.11 C-12.05 16.23 -12.42 12.8 -11.81 8.38 C-8.89 2.93 -6.31 0.1 0 0 Z " fill="#3C3028" transform="translate(296.8125,167.625)"/>
<path d="M0 0 C3.06 1.38 3.06 1.38 5 3 C5 3.66 5 4.32 5 5 C5.66 5 6.32 5 7 5 C8.32 7.64 8.1 9.68 8.06 12.62 C8.05 13.63 8.04 14.63 8.04 15.66 C8.02 16.43 8.01 17.21 8 18 C7.5 18.16 7.5 18.16 5 19 C4.71 19.64 4.42 20.28 4.12 20.94 C2.61 23.72 0.94 24.07 -2 25 C-2 25.66 -2 26.32 -2 27 C-3.29 27.67 -4.58 28.34 -5.88 29 C-6.59 29.37 -7.31 29.74 -8.05 30.12 C-10 31 -10 31 -12 31 C-12.33 31.99 -12.66 32.98 -13 34 C-14.88 35.14 -14.88 35.14 -17.34 36.25 C-23.32 39.09 -28.88 42.46 -34.5 45.94 C-37.4 47.72 -40.3 49.5 -43.2 51.28 C-45.06 52.42 -46.91 53.58 -48.76 54.75 C-49.63 55.3 -50.49 55.84 -51.39 56.4 C-52.15 56.88 -52.91 57.37 -53.7 57.87 C-57.71 59.84 -61.68 60.04 -66 59 C-69.37 56.4 -72.58 53.29 -73.37 48.95 C-73.49 44.93 -73.29 42.52 -71.31 38.94 C-67.26 34.83 -62.04 32.11 -57.1 29.23 C-53.86 27.33 -50.65 25.39 -47.43 23.45 C-44.92 21.94 -42.41 20.43 -39.89 18.93 C-39.09 18.45 -38.29 17.97 -37.46 17.47 C-35.79 16.47 -34.12 15.48 -32.45 14.49 C-28.51 12.15 -24.63 9.79 -20.84 7.23 C-20.19 6.79 -19.54 6.36 -18.87 5.92 C-17.57 5.05 -16.27 4.16 -14.99 3.26 C-10.03 0.02 -5.9 -0.88 0 0 Z " fill="#3C3028" transform="translate(252,547)"/>
<path d="M0 0 C3.93 1.65 6.59 3.39 9 7 C9.61 11.17 9.24 15.06 8.19 19.12 C4.74 23.66 -0 26.36 -5 29 C-5.66 29 -6.32 29 -7 29 C-7 29.66 -7 30.32 -7 31 C-7.36 31.13 -7.36 31.13 -9.15 31.79 C-12.18 33.08 -14.78 34.62 -17.56 36.38 C-18.7 37.09 -19.85 37.8 -20.99 38.52 C-21.62 38.91 -22.25 39.3 -22.9 39.71 C-26.97 42.22 -31.08 44.67 -35.19 47.12 C-36.01 47.62 -36.82 48.11 -37.67 48.61 C-39.29 49.58 -40.91 50.55 -42.53 51.51 C-44.26 52.55 -45.97 53.61 -47.68 54.68 C-48.12 54.96 -48.12 54.96 -50.34 56.34 C-50.73 56.58 -50.73 56.58 -52.73 57.85 C-57.01 60.02 -60.64 59.59 -65.25 58.44 C-68.75 55.56 -70.64 52.11 -71.39 47.71 C-71.58 43.69 -71.34 41.55 -69.19 38.06 C-64.88 34 -64.88 34 -61 34 C-61 33.34 -61 32.68 -61 32 C-59.58 30.95 -59.58 30.95 -57.6 29.83 C-56.88 29.41 -56.16 29 -55.41 28.57 C-54.64 28.14 -53.86 27.7 -53.06 27.25 C-51.49 26.35 -49.92 25.44 -48.35 24.54 C-47.59 24.1 -46.83 23.66 -46.06 23.21 C-42.93 21.37 -39.95 19.34 -36.96 17.29 C-34.17 15.45 -31.25 13.88 -28.32 12.28 C-25.84 10.91 -23.42 9.47 -21 8 C-20.17 7.5 -19.34 7 -18.48 6.49 C-16.85 5.51 -15.23 4.52 -13.61 3.51 C-8.93 0.69 -5.62 -0.94 0 0 Z " fill="#3C3028" transform="translate(713,273)"/>
<path d="M0 0 C8.58 0 17.16 0 26 0 C26 8.58 26 17.16 26 26 C17.42 26 8.84 26 0 26 C0 17.42 0 8.84 0 0 Z " fill="#42372F" transform="translate(425,755)"/>
<path d="M0 0 C2.05 -0.01 2.05 -0.01 12.44 -0.06 C13.09 -0.07 13.09 -0.07 16.36 -0.09 C16.87 -0.09 16.87 -0.09 19.43 -0.1 C20.48 -0.1 21.52 -0.11 22.59 -0.11 C25 0 25 0 26 1 C26.09 2.85 26.11 4.71 26.1 6.57 C26.1 7.58 26.09 8.59 26.09 9.64 C26.08 10.93 26.07 12.23 26.06 13.56 C26.04 17.67 26.02 21.77 26 26 C17.42 26 8.84 26 0 26 C0 17.42 0 8.84 0 0 Z " fill="#433730" transform="translate(508,807)"/>
<path d="M0 0 C8.58 0 17.16 0 26 0 C26 8.25 26 16.5 26 25 C17.42 25 8.84 25 0 25 C0 16.75 0 8.5 0 0 Z " fill="#3D332A" transform="translate(455,808)"/>
<path d="M0 0 C8.25 0 16.5 0 25 0 C25 8.58 25 17.16 25 26 C16.75 26 8.5 26 0 26 C0 17.42 0 8.84 0 0 Z " fill="#3F352E" transform="translate(614,806)"/>
<path d="M0 0 C8.58 0 17.16 0 26 0 C26 8.25 26 16.5 26 25 C17.42 25 8.84 25 0 25 C0 16.75 0 8.5 0 0 Z " fill="#41362E" transform="translate(561,807)"/>
<path d="M0 0 C8.25 0 16.5 0 25 0 C25 8.58 25 17.16 25 26 C16.75 26 8.5 26 0 26 C0 17.42 0 8.84 0 0 Z " fill="#40352E" transform="translate(532,754)"/>
<path d="M0 0 C8.25 0 16.5 0 25 0 C25 8.58 25 17.16 25 26 C16.75 26 8.5 26 0 26 C0 17.42 0 8.84 0 0 Z " fill="#40352D" transform="translate(637,753)"/>
<path d="M0 0 C8.25 0 16.5 0 25 0 C25 8.58 25 17.16 25 26 C16.75 26 8.5 26 0 26 C0 17.42 0 8.84 0 0 Z " fill="#42362F" transform="translate(690,752)"/>
<path d="M0 0 C8.25 0 16.5 0 25 0 C25 8.58 25 17.16 25 26 C21.06 26.02 17.12 26.04 13.06 26.06 C12.44 26.07 12.44 26.07 9.29 26.09 C8.32 26.09 7.35 26.1 6.35 26.1 C5.85 26.1 5.85 26.1 3.32 26.11 C1 26 1 26 0 25 C-0.09 23.15 -0.11 21.29 -0.1 19.43 C-0.1 18.42 -0.09 17.41 -0.09 16.36 C-0.08 15.07 -0.07 13.77 -0.06 12.44 C-0.04 8.33 -0.02 4.23 0 0 Z " fill="#403124" transform="translate(415,649)"/>
<path d="M0 0 C8.25 0 16.5 0 25 0 C25 8.25 25 16.5 25 25 C16.75 25 8.5 25 0 25 C0 16.75 0 8.5 0 0 Z " fill="#3B312A" transform="translate(403,809)"/>
<path d="M0 0 C8.25 0 16.5 0 25 0 C25 8.25 25 16.5 25 25 C16.75 25 8.5 25 0 25 C0 16.75 0 8.5 0 0 Z " fill="#3C3129" transform="translate(667,806)"/>
<path d="M0 0 C8.25 0 16.5 0 25 0 C25 8.25 25 16.5 25 25 C16.75 25 8.5 25 0 25 C0 16.75 0 8.5 0 0 Z " fill="#3D3129" transform="translate(720,806)"/>
<path d="M0 0 C8.25 0 16.5 0 25 0 C25 8.25 25 16.5 25 25 C16.75 25 8.5 25 0 25 C0 16.75 0 8.5 0 0 Z " fill="#3B2E28" transform="translate(479,755)"/>
<path d="M0 0 C8.25 0 16.5 0 25 0 C25 8.25 25 16.5 25 25 C16.75 25 8.5 25 0 25 C0 16.75 0 8.5 0 0 Z " fill="#3A3028" transform="translate(584,754)"/>
<path d="M0 0 C8.25 0 16.5 0 25 0 C25 8.25 25 16.5 25 25 C16.75 25 8.5 25 0 25 C0 16.75 0 8.5 0 0 Z " fill="#3B2D1F" transform="translate(468,649)"/>
<path d="M0 0 C8.25 0 16.5 0 25 0 C25 8.25 25 16.5 25 25 C16.75 25 8.5 25 0 25 C0 16.75 0 8.5 0 0 Z " fill="#3C2D20" transform="translate(521,648)"/>
<path d="M0 0 C8.25 0 16.5 0 25 0 C25.01 1.97 25.01 1.97 25.06 11.94 C25.07 13.18 25.08 14.43 25.09 15.71 C25.09 16.68 25.1 17.65 25.1 18.65 C25.1 19.15 25.1 19.15 25.11 21.68 C25 24 25 24 24 25 C22.22 25.09 20.44 25.11 18.65 25.1 C17.68 25.1 16.71 25.09 15.71 25.09 C14.46 25.08 13.22 25.07 11.94 25.06 C8 25.04 4.06 25.02 0 25 C0 16.75 0 8.5 0 0 Z " fill="#3E2F21" transform="translate(574,648)"/>
<path d="M0 0 C7.92 0 15.84 0 24 0 C24 8.25 24 16.5 24 25 C16.08 25 8.16 25 0 25 C0 16.75 0 8.5 0 0 Z " fill="#392C22" transform="translate(448,702)"/>
<path d="M0 0 C7.92 0 15.84 0 24 0 C24 8.25 24 16.5 24 25 C16.08 25 8.16 25 0 25 C0 16.75 0 8.5 0 0 Z " fill="#392C22" transform="translate(607,700)"/>
<path d="M0 0 C7.92 0 15.84 0 24 0 C24 8.25 24 16.5 24 25 C16.08 25 8.16 25 0 25 C0 16.75 0 8.5 0 0 Z " fill="#3C2D20" transform="translate(627,647)"/>
<path d="M0 0 C8.25 0 16.5 0 25 0 C25 7.92 25 15.84 25 24 C17.08 24 9.16 24 1 24 C0.25 15.76 -0.09 8.2 0 0 Z " fill="#392C21" transform="translate(553,701)"/>
<path d="M0 0 C7.92 0 15.84 0 24 0 C24 7.92 24 15.84 24 24 C16.08 24 8.16 24 0 24 C0 16.08 0 8.16 0 0 Z " fill="#372A20" transform="translate(501,702)"/>
<path d="M0 0 C0.44 -0 0.44 -0 2.68 -0 C11.54 0.07 20.23 1 29 2.19 C29 2.85 29 3.51 29 4.19 C30.09 3.86 31.19 3.53 32.31 3.19 C36 2.19 36 2.19 39 2.19 C38.01 3.51 37.02 4.83 36 6.19 C35.39 6.08 35.39 6.08 32.29 5.53 C6.21 1.13 -19.75 2.45 -44.25 13.05 C-47.47 14.38 -50.63 15.34 -54 16.19 C-54 16.85 -54 17.51 -54 18.19 C-54.74 18.52 -55.48 18.84 -56.24 19.18 C-67.47 24.45 -75.97 32.05 -84.91 40.54 C-87 42.19 -87 42.19 -90 42.19 C-90.86 40.23 -91.72 38.27 -92.56 36.31 C-93.04 35.22 -93.51 34.13 -94 33.01 C-94.17 32.54 -94.17 32.54 -95 30.19 C-94.67 29.53 -94.34 28.87 -94 28.19 C-93.4 29.12 -92.8 30.04 -92.19 31 C-90.53 33.42 -89.08 35.2 -87 37.19 C-81.89 33.47 -77.33 29.74 -73.06 25.06 C-71 23.19 -71 23.19 -68.74 22.29 C-65.65 21.05 -62.97 19.47 -60.12 17.75 C-49.01 11.19 -49.01 11.19 -44 11.19 C-44 10.53 -44 9.87 -44 9.19 C-42.89 8.92 -41.78 8.66 -40.64 8.38 C-39.18 8.03 -37.71 7.67 -36.25 7.31 C-35.52 7.14 -34.79 6.96 -34.04 6.79 C-28.44 5.41 -28.44 5.41 -25.9 4.12 C-23.14 2.77 -20.41 2.53 -17.38 2.12 C-1.74 -0 -1.74 -0 0 0 Z " fill="#C9A44B" transform="translate(400,465.8125)"/>
<path d="M0 0 C-0.33 0.66 -0.66 1.32 -1 2 C-2.54 1.88 -4.08 1.76 -5.62 1.62 C-6.05 1.59 -6.05 1.59 -8.23 1.41 C-11.32 0.95 -14.05 0.02 -17 -1 C-35.81 -5.67 -58.23 -4.21 -77 0 C-77.33 0.33 -77.66 0.66 -78 1 C-79.7 1.32 -81.41 1.61 -83.12 1.88 C-86.59 2.47 -89.63 3.11 -92.81 4.62 C-96.16 6.07 -98.4 6.26 -102 6 C-102 6.66 -102 7.32 -102 8 C-105.53 9.67 -107.28 10.14 -111 9 C-77.16 -8.54 -36.31 -11.03 0 0 Z " fill="#4E3609" transform="translate(603,416)"/>
<path d="M0 0 C0.68 -0.01 1.37 -0.03 2.07 -0.04 C5.73 -0.05 7.18 0.1 10.31 2.19 C9.95 2.19 9.95 2.19 8.1 2.23 C-20.99 2.88 -49.03 7.06 -75 20.94 C-75.64 21.28 -76.27 21.62 -76.93 21.97 C-83.12 25.33 -88.9 29.18 -94.69 33.19 C-96.68 34.53 -98.68 35.86 -100.69 37.19 C-99.16 33.15 -96.65 31.4 -93.19 28.94 C-92.7 28.58 -92.7 28.58 -90.22 26.8 C-87.69 25.19 -87.69 25.19 -85.69 25.19 C-85.69 24.53 -85.69 23.87 -85.69 23.19 C-85.35 23.07 -85.35 23.07 -83.61 22.45 C-80.83 21.25 -78.35 19.8 -75.78 18.22 C-52.85 4.32 -26.38 0.32 0 0 Z " fill="#472F07" transform="translate(453.6875,280.8125)"/>
<path d="M0 0 C0 0.66 0 1.32 0 2 C-1.63 1.86 -3.25 1.71 -4.88 1.56 C-5.78 1.48 -6.68 1.4 -7.62 1.32 C-10 1 -10 1 -12 0 C-36.83 -4.13 -64.32 -4.2 -88 5 C-88.99 5 -89.98 5 -91 5 C-91 4.34 -91 3.68 -91 3 C-84.56 0.11 -79.03 -1.44 -72 -2 C-71.67 -2.33 -71.34 -2.66 -71 -3 C-47.25 -7.12 -23.26 -5.95 0 0 Z " fill="#C7A34A" transform="translate(600,413)"/>
<path d="M0 0 C5.92 0.63 11.3 2.18 16.94 4.06 C17.39 4.21 17.39 4.21 19.71 4.98 C28.22 7.91 36.1 11.72 44 16 C44.66 16.33 45.32 16.66 46 17 C46 17.66 46 18.32 46 19 C46.68 19.25 47.36 19.5 48.06 19.75 C51.57 21.24 54.72 23.07 58 25 C58 25.66 58 26.32 58 27 C58.54 27.22 59.08 27.45 59.64 27.68 C62.74 29.41 65.18 31.72 67.75 34.12 C68.26 34.59 68.76 35.06 69.29 35.54 C70.53 36.69 71.76 37.85 73 39 C72.5 39.17 72.5 39.17 70 40 C67.31 38.25 67.31 38.25 65 36 C65 35.01 65 34.02 65 33 C64.7 32.95 64.7 32.95 63.19 32.69 C60.65 31.89 59.83 30.9 58 29 C56.34 27.99 54.67 26.99 53 26 C51.26 24.83 49.53 23.64 47.81 22.44 C46.95 21.84 46.09 21.24 45.21 20.62 C43 19 43 19 41 17 C38.63 15.97 36.22 15.09 33.8 14.2 C31 13 31 13 27.71 11.04 C23.76 8.73 19.7 7.51 15.31 6.31 C14.94 6.21 14.94 6.21 13.05 5.67 C9.71 4.73 6.37 3.83 3 3 C3 2.34 3 1.68 3 1 C2.01 0.67 1.02 0.34 0 0 Z " fill="#CBA54D" transform="translate(486,288)"/>
<path d="M0 0 C0.33 0 0.66 0 1 0 C2.1 7.55 2.98 15.05 3.4 22.66 C4.1 35.04 4.99 46.55 8.88 58.36 C9.99 61.98 10.57 65.25 11 69 C10.34 69 9.68 69 9 69 C6.73 61.95 4.64 54.87 2.81 47.69 C2.65 47.05 2.65 47.05 1.83 43.82 C0.4 37.23 -0.12 30.96 -0.1 24.22 C-0.1 23.52 -0.09 22.82 -0.09 22.1 C-0.09 19.9 -0.08 17.7 -0.06 15.5 C-0.06 13.99 -0.05 12.49 -0.05 10.98 C-0.04 7.32 -0.02 3.66 0 0 Z " fill="#C9A549" transform="translate(295,424)"/>
<path d="M0 0 C0.66 0.33 1.32 0.66 2 1 C0.73 4.96 -1.65 6.06 -5.2 7.94 C-7.92 9.54 -9.87 11.7 -12 14 C-12.76 14.74 -13.53 15.49 -14.31 16.25 C-17.37 19.38 -20.25 22.63 -23.13 25.91 C-24.23 27.14 -25.36 28.35 -26.53 29.52 C-32.17 35.21 -36.36 41.91 -40 49 C-40.99 48.67 -41.98 48.34 -43 48 C-42.33 46.67 -42.33 46.67 -39 40 C-38.34 40 -37.68 40 -37 40 C-36.76 39.28 -36.51 38.57 -36.26 37.83 C-34.83 34.63 -33.07 32.37 -30.81 29.69 C-30.01 28.73 -29.2 27.77 -28.37 26.78 C-27.59 25.86 -26.8 24.94 -26 24 C-25.38 23.26 -24.77 22.52 -24.13 21.75 C-17.08 13.42 -8.46 6.85 0 0 Z " fill="#C5A047" transform="translate(360,312)"/>
</svg>
